<mxfile host="Electron" agent="Mozilla/5.0 (Windows NT 10.0; Win64; x64) AppleWebKit/537.36 (KHTML, like Gecko) draw.io/27.0.9 Chrome/134.0.6998.205 Electron/35.4.0 Safari/537.36" version="27.0.9">
  <diagram name="Pagina-1" id="kvsbXQLho8J0N1n9lPZK">
    <mxGraphModel dx="1042" dy="722" grid="1" gridSize="10" guides="1" tooltips="1" connect="1" arrows="1" fold="1" page="1" pageScale="1" pageWidth="827" pageHeight="1169" math="0" shadow="0">
      <root>
        <mxCell id="0" />
        <mxCell id="1" parent="0" />
        <mxCell id="aMiIsFAKn5lQdkfIerml-16" style="edgeStyle=orthogonalEdgeStyle;rounded=0;orthogonalLoop=1;jettySize=auto;html=1;entryX=0.5;entryY=0;entryDx=0;entryDy=0;endArrow=open;startFill=0;endFill=0;" parent="1" source="aMiIsFAKn5lQdkfIerml-1" target="aMiIsFAKn5lQdkfIerml-17" edge="1">
          <mxGeometry relative="1" as="geometry">
            <mxPoint x="165" y="370" as="targetPoint" />
          </mxGeometry>
        </mxCell>
        <mxCell id="aMiIsFAKn5lQdkfIerml-1" value="AnalisiDati" style="swimlane;fontStyle=1;align=center;verticalAlign=top;childLayout=stackLayout;horizontal=1;startSize=26;horizontalStack=0;resizeParent=1;resizeParentMax=0;resizeLast=0;collapsible=1;marginBottom=0;whiteSpace=wrap;html=1;fillColor=#7EA6E0;strokeColor=none;fontColor=#FFFFFF;swimlaneFillColor=#E6E6E6;" parent="1" vertex="1">
          <mxGeometry x="10" y="120" width="310" height="150" as="geometry" />
        </mxCell>
        <mxCell id="aMiIsFAKn5lQdkfIerml-2" value="- rilevazione: Rilevazione" style="text;strokeColor=none;fillColor=none;align=left;verticalAlign=top;spacingLeft=4;spacingRight=4;overflow=hidden;rotatable=0;points=[[0,0.5],[1,0.5]];portConstraint=eastwest;whiteSpace=wrap;html=1;" parent="aMiIsFAKn5lQdkfIerml-1" vertex="1">
          <mxGeometry y="26" width="310" height="34" as="geometry" />
        </mxCell>
        <mxCell id="aMiIsFAKn5lQdkfIerml-3" value="" style="line;strokeWidth=1;fillColor=none;align=left;verticalAlign=middle;spacingTop=-1;spacingLeft=3;spacingRight=3;rotatable=0;labelPosition=right;points=[];portConstraint=eastwest;strokeColor=#7EA6E0;dashed=1;" parent="aMiIsFAKn5lQdkfIerml-1" vertex="1">
          <mxGeometry y="60" width="310" height="8" as="geometry" />
        </mxCell>
        <mxCell id="aMiIsFAKn5lQdkfIerml-4" value="&lt;div&gt;- recuperaSensore(String): Sensore&lt;/div&gt;&lt;div&gt;- livelloRischioAttuale(Sensore, Float): LivelloRischio&lt;/div&gt;&lt;div&gt;+ selezioneUtenti(Posizione, LivelloRischio): String[]&lt;/div&gt;&lt;div&gt;- salva(Rilevazione)&lt;/div&gt;+ ricevi()" style="text;strokeColor=none;fillColor=none;align=left;verticalAlign=top;spacingLeft=4;spacingRight=4;overflow=hidden;rotatable=0;points=[[0,0.5],[1,0.5]];portConstraint=eastwest;whiteSpace=wrap;html=1;" parent="aMiIsFAKn5lQdkfIerml-1" vertex="1">
          <mxGeometry y="68" width="310" height="82" as="geometry" />
        </mxCell>
        <mxCell id="aMiIsFAKn5lQdkfIerml-26" style="edgeStyle=orthogonalEdgeStyle;rounded=0;orthogonalLoop=1;jettySize=auto;html=1;entryX=0.5;entryY=0;entryDx=0;entryDy=0;endArrow=open;endFill=0;" parent="1" source="aMiIsFAKn5lQdkfIerml-6" target="aMiIsFAKn5lQdkfIerml-23" edge="1">
          <mxGeometry relative="1" as="geometry">
            <Array as="points">
              <mxPoint x="500" y="240" />
              <mxPoint x="500" y="240" />
            </Array>
          </mxGeometry>
        </mxCell>
        <mxCell id="aMiIsFAKn5lQdkfIerml-6" value="Sensore" style="swimlane;fontStyle=1;align=center;verticalAlign=top;childLayout=stackLayout;horizontal=1;startSize=26;horizontalStack=0;resizeParent=1;resizeParentMax=0;resizeLast=0;collapsible=1;marginBottom=0;whiteSpace=wrap;html=1;fillColor=#7EA6E0;strokeColor=none;fontColor=#FFFFFF;swimlaneFillColor=#E6E6E6;" parent="1" vertex="1">
          <mxGeometry x="410" y="121" width="160" height="100" as="geometry" />
        </mxCell>
        <mxCell id="aMiIsFAKn5lQdkfIerml-7" value="- idSensore: String&lt;div&gt;- livelloArgine: Float&lt;/div&gt;" style="text;strokeColor=none;fillColor=none;align=left;verticalAlign=top;spacingLeft=4;spacingRight=4;overflow=hidden;rotatable=0;points=[[0,0.5],[1,0.5]];portConstraint=eastwest;whiteSpace=wrap;html=1;" parent="aMiIsFAKn5lQdkfIerml-6" vertex="1">
          <mxGeometry y="26" width="160" height="44" as="geometry" />
        </mxCell>
        <mxCell id="aMiIsFAKn5lQdkfIerml-8" value="" style="line;strokeWidth=1;fillColor=none;align=left;verticalAlign=middle;spacingTop=-1;spacingLeft=3;spacingRight=3;rotatable=0;labelPosition=right;points=[];portConstraint=eastwest;strokeColor=#7EA6E0;dashed=1;" parent="aMiIsFAKn5lQdkfIerml-6" vertex="1">
          <mxGeometry y="70" width="160" height="8" as="geometry" />
        </mxCell>
        <mxCell id="c-OvmWWnV5PSCNmriRru-1" style="line;strokeWidth=1;fillColor=none;align=left;verticalAlign=middle;spacingTop=-1;spacingLeft=3;spacingRight=3;rotatable=0;labelPosition=right;points=[];portConstraint=eastwest;strokeColor=none;dashed=1;" vertex="1" parent="aMiIsFAKn5lQdkfIerml-6">
          <mxGeometry y="78" width="160" height="22" as="geometry" />
        </mxCell>
        <mxCell id="aMiIsFAKn5lQdkfIerml-9" value="Soglie" style="swimlane;fontStyle=1;align=center;verticalAlign=top;childLayout=stackLayout;horizontal=1;startSize=26;horizontalStack=0;resizeParent=1;resizeParentMax=0;resizeLast=0;collapsible=1;marginBottom=0;whiteSpace=wrap;html=1;fillColor=#7EA6E0;strokeColor=none;fontColor=#FFFFFF;swimlaneFillColor=#E6E6E6;" parent="1" vertex="1">
          <mxGeometry x="660" y="116" width="160" height="110" as="geometry" />
        </mxCell>
        <mxCell id="aMiIsFAKn5lQdkfIerml-10" value="- alta: Float&lt;div&gt;- media: Float&lt;/div&gt;&lt;div&gt;- bassa: Float&lt;/div&gt;" style="text;strokeColor=none;fillColor=none;align=left;verticalAlign=top;spacingLeft=4;spacingRight=4;overflow=hidden;rotatable=0;points=[[0,0.5],[1,0.5]];portConstraint=eastwest;whiteSpace=wrap;html=1;" parent="aMiIsFAKn5lQdkfIerml-9" vertex="1">
          <mxGeometry y="26" width="160" height="54" as="geometry" />
        </mxCell>
        <mxCell id="aMiIsFAKn5lQdkfIerml-11" value="" style="line;strokeWidth=1;fillColor=none;align=left;verticalAlign=middle;spacingTop=-1;spacingLeft=3;spacingRight=3;rotatable=0;labelPosition=right;points=[];portConstraint=eastwest;strokeColor=#7EA6E0;dashed=1;" parent="aMiIsFAKn5lQdkfIerml-9" vertex="1">
          <mxGeometry y="80" width="160" height="8" as="geometry" />
        </mxCell>
        <mxCell id="c-OvmWWnV5PSCNmriRru-3" style="line;strokeWidth=1;fillColor=none;align=left;verticalAlign=middle;spacingTop=-1;spacingLeft=3;spacingRight=3;rotatable=0;labelPosition=right;points=[];portConstraint=eastwest;strokeColor=none;dashed=1;" vertex="1" parent="aMiIsFAKn5lQdkfIerml-9">
          <mxGeometry y="88" width="160" height="22" as="geometry" />
        </mxCell>
        <mxCell id="aMiIsFAKn5lQdkfIerml-12" style="edgeStyle=orthogonalEdgeStyle;rounded=0;orthogonalLoop=1;jettySize=auto;html=1;entryX=0;entryY=0.5;entryDx=0;entryDy=0;endArrow=open;startFill=0;endFill=0;" parent="1" source="aMiIsFAKn5lQdkfIerml-7" target="aMiIsFAKn5lQdkfIerml-10" edge="1">
          <mxGeometry relative="1" as="geometry">
            <mxPoint x="610" y="169" as="targetPoint" />
          </mxGeometry>
        </mxCell>
        <mxCell id="aMiIsFAKn5lQdkfIerml-13" value="1" style="text;strokeColor=none;align=center;fillColor=none;html=1;verticalAlign=middle;whiteSpace=wrap;rounded=0;" parent="1" vertex="1">
          <mxGeometry x="380" y="150" width="20" height="20" as="geometry" />
        </mxCell>
        <mxCell id="aMiIsFAKn5lQdkfIerml-14" value="1" style="text;strokeColor=none;align=center;fillColor=none;html=1;verticalAlign=middle;whiteSpace=wrap;rounded=0;" parent="1" vertex="1">
          <mxGeometry x="580" y="150" width="20" height="20" as="geometry" />
        </mxCell>
        <mxCell id="aMiIsFAKn5lQdkfIerml-15" value="1" style="text;strokeColor=none;align=center;fillColor=none;html=1;verticalAlign=middle;whiteSpace=wrap;rounded=0;" parent="1" vertex="1">
          <mxGeometry x="640" y="150" width="20" height="20" as="geometry" />
        </mxCell>
        <mxCell id="aMiIsFAKn5lQdkfIerml-5" style="rounded=0;orthogonalLoop=1;jettySize=auto;html=1;endArrow=open;startFill=0;endFill=0;entryX=0;entryY=0.5;entryDx=0;entryDy=0;" parent="1" source="aMiIsFAKn5lQdkfIerml-2" target="aMiIsFAKn5lQdkfIerml-7" edge="1">
          <mxGeometry relative="1" as="geometry">
            <mxPoint x="400" y="190" as="targetPoint" />
          </mxGeometry>
        </mxCell>
        <mxCell id="aMiIsFAKn5lQdkfIerml-17" value="&lt;i&gt;&amp;lt;&amp;lt;enum&amp;gt;&amp;gt;&lt;/i&gt;&lt;div&gt;&lt;b&gt;LivelloRischio&lt;/b&gt;&lt;/div&gt;" style="swimlane;fontStyle=0;childLayout=stackLayout;horizontal=1;startSize=40;fillColor=#7EA6E0;horizontalStack=0;resizeParent=1;resizeParentMax=0;resizeLast=0;collapsible=1;marginBottom=0;whiteSpace=wrap;html=1;strokeColor=none;fontColor=#FFFFFF;swimlaneFillColor=#E6E6E6;" parent="1" vertex="1">
          <mxGeometry x="95" y="370" width="140" height="100" as="geometry" />
        </mxCell>
        <mxCell id="aMiIsFAKn5lQdkfIerml-18" value="+ ALTO&lt;div&gt;+ MEDIO&lt;/div&gt;&lt;div&gt;+BASSO&lt;/div&gt;" style="text;strokeColor=none;fillColor=none;align=left;verticalAlign=top;spacingLeft=4;spacingRight=4;overflow=hidden;rotatable=0;points=[[0,0.5],[1,0.5]];portConstraint=eastwest;whiteSpace=wrap;html=1;" parent="aMiIsFAKn5lQdkfIerml-17" vertex="1">
          <mxGeometry y="40" width="140" height="60" as="geometry" />
        </mxCell>
        <mxCell id="aMiIsFAKn5lQdkfIerml-19" value="1" style="text;strokeColor=none;align=center;fillColor=none;html=1;verticalAlign=middle;whiteSpace=wrap;rounded=0;" parent="1" vertex="1">
          <mxGeometry x="320" y="150" width="20" height="20" as="geometry" />
        </mxCell>
        <mxCell id="aMiIsFAKn5lQdkfIerml-22" value="1" style="edgeLabel;resizable=0;html=1;align=right;verticalAlign=bottom;" parent="1" connectable="0" vertex="1">
          <mxGeometry x="420" y="330" as="geometry">
            <mxPoint x="71" y="-62" as="offset" />
          </mxGeometry>
        </mxCell>
        <mxCell id="aMiIsFAKn5lQdkfIerml-23" value="Posizione" style="swimlane;fontStyle=1;align=center;verticalAlign=top;childLayout=stackLayout;horizontal=1;startSize=26;horizontalStack=0;resizeParent=1;resizeParentMax=0;resizeLast=0;collapsible=1;marginBottom=0;whiteSpace=wrap;html=1;fillColor=#7EA6E0;strokeColor=none;fontColor=#FFFFFF;swimlaneFillColor=#E6E6E6;" parent="1" vertex="1">
          <mxGeometry x="420" y="280" width="160" height="100" as="geometry" />
        </mxCell>
        <mxCell id="aMiIsFAKn5lQdkfIerml-24" value="- latitudine: float&lt;div&gt;-logitudine: float&lt;/div&gt;" style="text;strokeColor=none;fillColor=none;align=left;verticalAlign=top;spacingLeft=4;spacingRight=4;overflow=hidden;rotatable=0;points=[[0,0.5],[1,0.5]];portConstraint=eastwest;whiteSpace=wrap;html=1;" parent="aMiIsFAKn5lQdkfIerml-23" vertex="1">
          <mxGeometry y="26" width="160" height="44" as="geometry" />
        </mxCell>
        <mxCell id="aMiIsFAKn5lQdkfIerml-25" value="" style="line;strokeWidth=1;fillColor=none;align=left;verticalAlign=middle;spacingTop=-1;spacingLeft=3;spacingRight=3;rotatable=0;labelPosition=right;points=[];portConstraint=eastwest;strokeColor=#7EA6E0;dashed=1;" parent="aMiIsFAKn5lQdkfIerml-23" vertex="1">
          <mxGeometry y="70" width="160" height="10" as="geometry" />
        </mxCell>
        <mxCell id="c-OvmWWnV5PSCNmriRru-4" style="line;strokeWidth=1;fillColor=none;align=left;verticalAlign=middle;spacingTop=-1;spacingLeft=3;spacingRight=3;rotatable=0;labelPosition=right;points=[];portConstraint=eastwest;strokeColor=none;dashed=1;" vertex="1" parent="aMiIsFAKn5lQdkfIerml-23">
          <mxGeometry y="80" width="160" height="20" as="geometry" />
        </mxCell>
        <mxCell id="aMiIsFAKn5lQdkfIerml-27" value="1" style="text;strokeColor=none;align=center;fillColor=none;html=1;verticalAlign=middle;whiteSpace=wrap;rounded=0;" parent="1" vertex="1">
          <mxGeometry x="500" y="220" width="20" height="20" as="geometry" />
        </mxCell>
      </root>
    </mxGraphModel>
  </diagram>
</mxfile>
